<svg id="Camada_1" data-name="Camada 1" xmlns="http://www.w3.org/2000/svg" viewBox="0 0 799.57 795.61"><defs><style>.cls-1{fill:#0086f6;}</style></defs><path class="cls-1" d="M449.87,647.74c0-47.65.06-95.3-.1-142.95,0-4.31.91-5.61,5.44-5.59,42.15.19,84.3.06,126.45.2,4.2,0,5.91-.75,6.45-5.47q5.16-44.65,11.18-89.21c.61-4.51-.54-5.25-4.67-5.24q-69.23.19-138.45.07c-7.36,0-6.27.56-6.29-6.49,0-14.49-.1-29,0-43.49.21-27.48,21.43-49.34,48.93-49.69,31.65-.39,63.31-.27,95,0,5.31,0,6.19-1.57,6.16-6.4q-.35-44.24,0-88.47c0-4.13-1-5.3-5.21-5.27-32.82.2-65.65-.31-98.46.27-76.56,1.36-140.1,61.07-145.87,137.39-1.43,18.89-.52,38-.39,57,0,4.1-1,5.33-5.22,5.28-21.83-.21-43.65,0-65.48-.17-3.41,0-4.49.78-4.47,4.35q.21,45.74,0,91.47c0,3.41,1.09,4.09,4.23,4.07,22-.13,44,0,66-.16,4,0,4.94,1.17,4.94,5q-.15,143.46,0,286.91c0,5.05-1.91,4.56-5.54,4Q175.54,769.88,74.72,632C29.54,570.12,5.32,500.18.79,423.57-5.33,320.2,24.31,228,89.41,147.82,150.35,72.8,228.9,25.16,324.08,7.57c119-22,227.55,3.83,323,78.51,79.73,62.35,129.22,144.38,146,244.19,22.1,131.19-12.94,246.61-103.62,344-57.52,61.79-128.9,100-211.6,117-8,1.63-16.14,2.43-24.11,4.12-3.86.82-4-.72-4-3.7q.09-45,0-90Z"/></svg>