<svg id="Camada_1" data-name="Camada 1" xmlns="http://www.w3.org/2000/svg" viewBox="0 0 444.22 443.97"><defs><style>.cls-1{fill:#0086f6;}</style></defs><path class="cls-1" d="M444.22,221.45c.39,122.71-98.93,222.31-221.89,222.52C99.58,444.19-.16,344.58,0,221.94a222.11,222.11,0,0,1,444.22-.49Zm-342.79,3.63h-.26c0,15.49,0,31,0,46.47,0,7.33.24,14.64,1.93,21.84,7.3,31.11,32.51,51,66.16,51.34q51.47.52,102.93,0c39.66-.46,67.43-28,68.05-67.84q.8-52.45,0-104.92c-.63-38.76-28-66.45-66-67q-53.46-.8-106.92,0c-37.09.62-64.09,27.07-65.72,64.16C100.75,187.75,101.43,206.43,101.43,225.08Z"/><path class="cls-1" d="M220.72,322.06c-17,0-34,.32-50.95-.07-28.19-.64-46.15-17.67-46.76-45.77q-1.12-52.43,0-104.89c.56-27.14,16.08-42.92,43.12-44.59,16.25-1,32.62-.5,48.93-.4,20.64.14,41.31-1,61.91.56,24.19,1.84,41,19.3,41.39,43.7q.79,54.18,0,108.38c-.37,24.27-18.58,42-43.2,42.85-18.12.59-36.29.12-54.43.12Zm-.38-159.57a61.64,61.64,0,0,0-61.5,61.14c-.14,33.6,27.45,61.37,61.11,61.48,34.69.11,62.54-27,62.6-61C282.61,190.33,254.57,162.56,220.34,162.49Zm78.37-2.85a14.22,14.22,0,0,0-14.17-14.36A14.46,14.46,0,0,0,270,159.83a14.19,14.19,0,0,0,14.77,14.25A14,14,0,0,0,298.71,159.64Z"/><path class="cls-1" d="M259.92,223.79a39.67,39.67,0,1,1-39.67-39.71A39.73,39.73,0,0,1,259.92,223.79Z"/></svg>