<svg id="Camada_1" data-name="Camada 1" xmlns="http://www.w3.org/2000/svg" viewBox="0 0 783.09 783.11"><defs><style>.cls-1{fill:#0086f6;}</style></defs><path class="cls-1" d="M391.31,783.11C174.79,783.05-.23,607.42,0,390.45.23,175.15,175.76-.16,390.92,0,608,.16,783.27,175.27,783.09,391.8,782.91,607.93,607.47,783.17,391.31,783.11ZM363.43,476.43c3.6,4.72,6.36,8.85,10.14,12.14,15.16,13.22,33,19.75,52.88,20.65,7.92.35,15.78-.71,23.7-1.72a119.17,119.17,0,0,0,31.73-9.09c19.5-8.28,35.66-21.37,49-37.75,19.22-23.54,30.91-50.69,37.44-80.17,5.84-26.38,9-53.17,4-79.85-11.42-60.4-48.51-99.26-105.17-120.24-30.8-11.4-62.87-12.73-95.14-8.3-63.56,8.74-113.35,38.71-143.29,96.79-21.08,40.9-23.33,83.61-6.14,126.59,8.29,20.74,22.68,36.31,43.67,45.06,7.21,3,12,.71,14.18-6.77,1.89-6.54,3.16-13.27,5.18-19.77s.89-11.83-3.67-17a64.21,64.21,0,0,1-15.77-33.46C259.75,319,272.25,280.18,305.62,250,344.1,215.27,390,208.55,438.73,222.4c37.55,10.67,61.16,36.35,67.5,75.1,6.32,38.56-.15,76-16.16,111.63-8.14,18.11-19.37,34.27-36.73,44.8-14.31,8.67-30,11.88-46.14,5.79-21.31-8-31.3-27.93-26-50.27,4.95-20.91,12.34-41.11,17.89-61.84,3.49-13.05,6.84-26.17,5.19-39.88-3.11-25.85-22.6-38.44-47.7-31.69-16.76,4.51-26.78,16.95-33.22,32.25-10.42,24.74-8.9,49.71,0,74.57.79,2.21,1.45,4.21.85,6.71q-13.77,58-27.32,116.11c-4.52,19.43-9.67,38.7-11.12,58.79-1.18,16.32,1,32.37,2,48.51.45,7.65,2.47,15.22,4.77,23.11,12.25-10,20.93-22,28.88-34.77,14.13-22.74,23.07-47.4,29-73.37C354.3,510.94,358.93,494.09,363.43,476.43Z"/></svg>