<svg id="Camada_1" data-name="Camada 1" xmlns="http://www.w3.org/2000/svg" viewBox="0 0 293.8 299.04"><defs><style>.cls-1{fill:#0086f6;}</style></defs><path class="cls-1" d="M133,.08h28c.36,1,1.26.87,2.05,1C226.25,8.48,276,53.23,290.3,115.25c1.36,5.9,1.14,12.09,3.58,17.75v29c-1.68.71-1,2.28-1.19,3.47-5.9,41.38-24.87,75.52-58.89,99.81C186,299.39,134.74,303.1,81.42,278.56c-2.06-.95-3.79-2.32-6.48-1.15C58,284.75,41,291.9,24.07,299.12c-1.67-.15-2-.58-1.51-2.53,4.35-16.19,8.38-32.47,12.76-48.65a7.41,7.41,0,0,0-1.6-7.6,145,145,0,0,1-31-66C2,170.19,2.49,165.75.08,162V132c2.09-1.72,1.39-4.29,1.71-6.42C10.9,65.1,55.23,17.34,115.2,3.61,121.09,2.26,127.06,1.25,133,.08ZM60.7,104.56a68.72,68.72,0,0,0,6,28.94c8.32,19.26,21,35.45,35.91,49.9,22,21.35,46.84,38.25,77,46.07,17.45,4.52,33.67,2.74,48-9,5.84-4.8,10.1-10.73,10.72-18.49.65-8.22-.17-15.43-9.42-19.64-9.06-4.12-18-8.6-27.19-12.39-5.48-2.24-9.69-1.23-13.27,3.22q-5.94,7.38-11.77,14.86c-2.88,3.68-6,4.25-10.43,2.26-25.1-11.19-44.52-28.73-59.32-51.71-1.85-2.88-1.76-5.18.27-7.65,3.37-4.12,6.77-8.21,10.15-12.32a11.92,11.92,0,0,0,2.27-12.15,267.57,267.57,0,0,0-14.83-35.35c-1.32-2.56-3.22-4.42-6-4.73-9.8-1.08-18.94,0-25.92,8.17C64.81,84,60.87,95,60.7,104.56Z" transform="translate(-0.08 -0.08)"/></svg>