<svg id="Camada_1" data-name="Camada 1" xmlns="http://www.w3.org/2000/svg" viewBox="0 0 225.35 225.22"><defs><style>.cls-1{fill:#0086f6;}</style></defs><path class="cls-1" d="M117.74,165.77V127.92c0-16.45,7.83-28.26,21.89-36.1,2.56-1.43,3.68-2.7,3.31-5.67a46.17,46.17,0,0,1,0-8.23c.18-3.42,1.93-5.18,5.54-5.1,5.12.11,10.25-.07,15.36.07a6.34,6.34,0,0,0,5.28-2.11c4.08-4.38,8.44-8.52,12.41-13a8,8,0,0,1,6.49-3c6.49.05,13-.08,19.49.06a6.07,6.07,0,0,0,5.49-2.5,8.61,8.61,0,0,1,1.74-2c6.52-4.81,8.91-11.14,7.93-19.19-.34-2.73-.75-5.07-2.69-7-1.31-1.33-3-2.47-3.87-4.05C212.27,13.37,206,14,199.69,14.26c-2,.07-2.64,1.08-2.53,2.87.24,3.84-1.83,4.95-5.33,4.92-9.62-.1-19.24.05-28.86-.09A8.81,8.81,0,0,0,156,24.79Q109.48,71.5,62.74,118a14.22,14.22,0,0,0-4.29,8.76c-.49,3.84-1.14,7.65-1.56,11.5a11.49,11.49,0,0,1-3.44,7.25c-2.63,2.66-5.06,5.51-7.59,8.26s-5.07,3-7.73.36q-15.57-15.42-31-30.94c-2.41-2.39-2.46-4.75.07-7.09a4.45,4.45,0,0,0,.54-.52c6.8-9.12,16.22-12.64,27.24-12.82,3.27-.06,5.78-1.5,8.15-3.89Q90.94,50.56,138.93,2.36a7.25,7.25,0,0,1,5.62-2.3q23.8.12,47.61,0c3.35,0,5.36.94,5,4.68-.2,2.07.72,3.05,2.82,2.87a4.68,4.68,0,0,0,.75,0c13.89-3.21,20.53,7.27,28.55,15.14,1,1,.92,2.26.92,3.52,0,5.37-.07,10.75,0,16.12A5.88,5.88,0,0,1,228.33,47Q222,53.2,215.87,59.46a6.39,6.39,0,0,1-5,2c-6.12-.08-12.25.1-18.37-.08a8,8,0,0,0-6.91,2.85c-1.7,2-3.71,3.7-5.5,5.62-.62.66-1.89,1.21-1.26,2.41.48.91,1.57.55,2.4.55,4.75,0,9.49,0,14.24,0,4.41.06,6,1.25,5.42,5.58-1,7.71,1.36,12.29,8.59,16.41,11.36,6.47,16.64,17.68,16.79,30.76.23,20.62.07,41.23,0,61.85a10,10,0,0,0,1.2,5.36c4.47,7.65,4,15.39-.71,22.63-5.15,7.88-12.88,11-22.06,9.48-8.43-1.35-14.3-6.44-17.08-14.49-1-2.84-2.24-3.57-5-3.52-8.37.16-16.74.12-25.11,0-2.41,0-3.6.22-4,3.23-1.38,9.38-10.14,15.66-19.9,14.8-8.7-.77-15.83-8.82-15.85-18Q117.72,186.39,117.74,165.77Zm54.41-42.85c14.36,0,28.72,0,43.08,0,2.6,0,3.93-.18,3.11-3.52-3.43-13.84-15.83-24.53-29.74-24.83q-16.47-.36-33,0c-13.07.32-25.92,10.78-29.41,23.47-1.16,4.2-.69,4.83,3.59,4.84ZM49.06,133c2.27-.45,1.88-2.21,1.95-3.58a25.83,25.83,0,0,1,8.41-18.58c19.6-18.67,38.63-37.95,57.88-57,6.62-6.55,6.5-6.45.12-13.07-2.43-2.51-3.92-2.78-6.5-.08C101.79,50.23,92.37,59.52,83.1,69,73.57,78.65,63.48,87.8,54.52,98c-6.19,7.08-12.85,12.79-23,12.31a7.71,7.71,0,0,0-1.45.32c-2.83.37-2.26,1.4-.71,2.93,6,5.87,11.85,11.81,17.77,17.71C47.76,131.91,48.45,132.44,49.06,133Zm108.8,26.78c-9.62,0-19.23.08-28.84-.06-2.75,0-3.75.72-3.69,3.58.17,7.73,0,15.48.09,23.22,0,1.42-.81,3.42.57,4.15s3-.86,4.49-1.32c1.31-.4,1.49-1.47,1.45-2.69-.06-2.25-.05-4.5,0-6.74.05-4.72,1.28-6,6-6,8.74,0,17.48,0,26.22,0q21.17,0,42.33,0c2.71,0,5.64.54,5.53,3.6-.14,3.73,2,4.44,4.57,5.61,2.36,1.08,2.49,0,2.46-1.81,0-3.37-.17-6.75,0-10.11.18-2.85-.6-4-3.7-3.85-6.48.24-13,.06-19.47.06-3,0-5.37-1-5.26-4.39.11-3.11-1.49-3.31-3.93-3.28C177.08,159.81,167.47,159.76,157.86,159.76Zm42.91,22.81a6.17,6.17,0,0,0-4.08-1c-17.6,0-35.21,0-52.81.09-1.48,0-4-1.2-4.15,1.6-.13,2.47-1.29,5.52,2.66,6.79a15.92,15.92,0,0,1,8.9,7.62,3.44,3.44,0,0,0,3.29,2q14.79,0,29.59,0c1.35,0,2.4-.27,2.89-1.77C189.33,190.9,194,185.94,200.77,182.57Zm-28.25-52c-14.47,0-28.94.09-43.41-.07-3.05,0-3.81,1-3.81,3.87s1,3.56,3.72,3.55q43.23-.14,86.44,0c3.24,0,3.58-1.21,3.64-3.89s-.7-3.59-3.55-3.56C201.21,130.65,186.86,130.56,172.52,130.56Zm50,72.45a13.92,13.92,0,0,0-13.94-14,14.18,14.18,0,0,0-14.43,14.46,13.91,13.91,0,0,0,14.07,13.91C216.78,217.35,222.57,211.55,222.55,203ZM158,152.47c9.61,0,19.22-.11,28.83.06,3,.06,3.85-1,3.8-3.89-.05-2.76-.62-4-3.75-4q-28.83.2-57.65,0c-3,0-3.84,1.07-3.88,3.91s.83,4,3.83,3.93C138.75,152.38,148.36,152.47,158,152.47ZM151.47,18.05c0-1-.76-1.54-1.36-2.15-1.39-1.43-2.89-2.75-4.19-4.26-1.78-2.07-3.21-2.06-5.15,0C136,16.67,131,21.53,126,26.47c-6.88,6.89-6.83,6.82.1,13.47,1.81,1.74,2.94,1.58,4.59-.1C137.09,33.35,143.56,27,150,20.52,150.67,19.83,151.53,19.21,151.47,18.05Zm21.39,61.46h0c-6.49,0-13-.06-19.46,0-4.18,0-2.17,3.35-2.56,5.31-.45,2.27.81,2.49,2.84,2.47,12.35-.12,24.7-.09,37,0,1.73,0,3.79,1,3.41-2-.3-2.32,1.65-5.92-3.31-5.79C184.84,79.63,178.85,79.51,172.86,79.51Zm35.33,80.24c2.74,0,5.49-.1,8.22,0,1.92.09,2.71-.5,2.63-2.51-.13-3.23-.11-6.48,0-9.72.07-2.08-.71-2.88-2.82-2.84-5.23.1-10.47.14-15.7,0-2.69-.07-3.35,1.09-3.41,3.57C196.84,159.75,196.78,159.75,208.19,159.75Zm-61.25,47a11.27,11.27,0,0,0-11.34-11c-6,.07-10.31,4.88-10.21,11.43.1,6.17,4.23,10.15,10.48,10.12C142.37,217.31,147,212.89,146.94,206.78ZM19.38,114.84a13.38,13.38,0,0,0-4,4.26c-.93,1.45.41,2.29,1.25,3.13,3.05,3.12,6.16,6.19,9.24,9.27,4.5,4.5,9,9,13.48,13.51,2.8,2.88,4-.12,5.77-1.36,2.1-1.49,1.25-2.71-.21-4.16-7.73-7.62-15.37-15.33-23.06-23C21.14,115.84,20.59,114.91,19.38,114.84ZM172.13,7.75v0c-5.37,0-10.74,0-16.11,0-1,0-3,.06-1.86,1.56,1.78,2.36,3.47,5.1,7.31,5,8.61-.2,17.23-.14,25.84,0,2.44,0,3.28-.65,3.27-3.15s-.83-3.55-3.47-3.46C182.12,7.87,177.12,7.75,172.13,7.75Z" transform="translate(-5.27 -0.06)"/><path class="cls-1" d="M19.78,225A14,14,0,0,1,5.3,210.77c0-8.34,6.32-15,14.32-15a15.06,15.06,0,0,1,14.89,15C34.49,218.6,27.89,225,19.78,225Zm0-7.65c4.19-.05,7.45-3.13,7.29-6.89a8.17,8.17,0,0,0-7.37-7.23c-3.78-.08-6.77,3.21-6.76,7.42S15.65,217.39,19.79,217.34Z" transform="translate(-5.27 -0.06)"/><path class="cls-1" d="M88.55,152.14c0,8.18-6.31,15.07-14,15.16-8.06.1-14.49-6.51-14.53-15a14.26,14.26,0,1,1,28.51-.21Zm-14-7.38A8.17,8.17,0,0,0,66.71,152c-.2,3.75,3.68,7.74,7.58,7.79a7.58,7.58,0,0,0,7.43-7.36A7.67,7.67,0,0,0,74.5,144.76Z" transform="translate(-5.27 -0.06)"/><path class="cls-1" d="M5.3,156.25a11.58,11.58,0,0,1,11-11.51c5.82-.14,10.82,4.94,10.87,11s-4.71,11.43-10.43,11.52A11.6,11.6,0,0,1,5.3,156.25Zm14.18,0c-.05-2.15-.72-3.82-3.14-3.72A3.16,3.16,0,0,0,13,155.76c0,2.3,1.18,3.87,3.52,3.9C18.65,159.69,19.42,158.11,19.48,156.22Z" transform="translate(-5.27 -0.06)"/><path class="cls-1" d="M81.72,188.85c0,5.84-5,10.7-11.13,10.71a10.35,10.35,0,0,1-10.54-10.34c0-6.4,4.5-11.4,10.36-11.45A11.38,11.38,0,0,1,81.72,188.85Zm-7.45.12c-.34-2.17-1.56-3.45-3.68-3.5a3.32,3.32,0,0,0-3.69,3.33c-.11,2.4,1.83,3.09,3.77,3.07S74,191.07,74.27,189Z" transform="translate(-5.27 -0.06)"/><path class="cls-1" d="M48.65,177.69c0,6.49-4.3,11.21-10.37,11.28A11,11,0,0,1,27.2,177.81c0-5.85,4.66-10.42,10.77-10.54C44.25,167.15,48.61,171.4,48.65,177.69Zm-7.34.17c-.09-2-.83-3.79-3.1-3.77a3.43,3.43,0,0,0-3.56,3.51,3.47,3.47,0,0,0,3.64,3.8C40.36,181.46,41.13,179.81,41.31,177.86Z" transform="translate(-5.27 -0.06)"/><path class="cls-1" d="M41.4,199.18c-.83-3.44,1.34-3.27,3.81-3.48,3.36-.3,3.36,1.4,3.54,4,.23,3.35-1.39,3.41-4,3.54C41.49,203.37,40.91,201.89,41.4,199.18Z" transform="translate(-5.27 -0.06)"/><path class="cls-1" d="M56.45,210.18c-.68-2.81.82-3.23,3.26-3.29,2.7-.07,3.34,1,3.42,3.49.09,3-1.14,3.47-3.77,3.52C56.38,214,56,212.53,56.45,210.18Z" transform="translate(-5.27 -0.06)"/><path class="cls-1" d="M212.1,203.25c.67,3-.54,3.82-3.55,3.84s-3.79-1-3.77-3.87c0-2.74.67-3.73,3.56-3.64C211,199.67,212.9,199.92,212.1,203.25Z" transform="translate(-5.27 -0.06)"/><path class="cls-1" d="M139.58,207c.7,3.42-1.25,3.78-4.05,3.87-3.14.11-3.6-1.31-3.71-4-.13-3.29,1.31-3.88,4.2-3.9C139.08,203,140.08,204.2,139.58,207Z" transform="translate(-5.27 -0.06)"/></svg>