<svg id="Camada_1" data-name="Camada 1" xmlns="http://www.w3.org/2000/svg" viewBox="0 0 217.48 217.38"><defs><style>.cls-1{fill:#0086f6;}</style></defs><path class="cls-1" d="M171,209.89c1.54,1.18,3.09.78,4.54.78q18.73,0,37.48,0c4.19,0,4.83.8,4.39,4.78-.16,1.43-.75,2-2.12,1.93-1,0-2,0-3,0H3.85c-2,0-3.91.45-3.85-2.85.06-2.95.91-3.92,3.88-3.89,12.61.14,25.23.09,37.85,0,1.55,0,3.26.53,4.79-.91-2.3-1.38-4.58-2.61-6.72-4.06a24.13,24.13,0,0,1-10.72-16c-.51-2.84-1.65-4-4.67-3.78-4.48.28-9,.15-13.49,0-7.09-.16-10.77-4-10.8-11,0-7.37,0-14.74,0-22.11,0-12.74,6.17-20.3,18.58-22.9,9.64-2,19.26-4.16,28.88-6.23a7.33,7.33,0,0,0,4.55-3c3.34-4.51,6.79-9,10.16-13.44.56-.74,1.8-1.45,1.1-2.5s-1.86-.38-2.8-.25c-12,1.62-23.36-.18-34-6.22A52.39,52.39,0,0,1,23.22,9.1C55.86-13,98.94,7.46,104.5,45.26a49.52,49.52,0,0,1-3.88,28.19c-1.42,3.1-.76,3.67,2.6,3.6,12-.23,24-.18,36-.07,10.72.09,18,5.81,24,14.25,7.33,10.24,15.39,20,23,30a13.25,13.25,0,0,0,4.89,3.92c7.74,3.77,15.43,7.63,23.22,11.29,2.11,1,3,2.2,3,4.55-.1,11.5,0,23-.07,34.48,0,6.39-3.76,10.23-10.23,10.45-5,.17-10,.07-15,.05-1.59,0-2.94,0-3.29,2.09-1.71,10.27-7.93,16.92-17.14,21.13C171.42,209.25,171.29,209.5,171,209.89ZM119.25,84c-6.49,0-13,.13-19.49,0-7.33-.19-12.86,2.66-17.23,8.6-8.66,11.76-17.61,23.29-26.42,34.94a5.63,5.63,0,0,1-3.61,2.35c-8.19,1.66-16.37,3.37-24.5,5.26-4.48,1-9.17,1.35-13.38,3.4-1.91.93-4.42,2.32-4.09,4.37.37,2.25,3.14,1,4.81,1.06,4.67.24,5.64,1.11,5.67,5.85,0,3.12,0,6.25,0,9.37,0,4.59-1.21,5.79-5.7,5.88-8.89.2-8.89.2-8.52,9.12.16,3.79,1.41,5,5.34,5.08,3.74.06,7.52-.25,11.23.09s5.22-1.05,6-4.66c2.33-11.17,13.51-20.07,24.87-20.18,14.5-.14,24.57,6.92,28.86,20.77,1,3.27,2.43,4.13,5.7,4.08,12.74-.2,25.48-.08,38.23-.08,5.94,0,5.94,0,7.83-5.64a28.05,28.05,0,0,1,34.46-18.09c10.16,3,16.62,9.65,19.12,20.05.32,1.31.08,3.5,2.1,3.54a170.22,170.22,0,0,0,17.21-.21c2.68-.21,3-2.95,2.89-5.34s-2.12-2-3.66-2a49.87,49.87,0,0,0-6,0c-3.53.31-4.62-1.41-4.59-4.67.09-9-.09-18,.11-27,.06-3-.81-4.71-3.65-6-4.35-2-8.79-3.78-11.88-8-8.12-11.23-16.74-22.09-25-33.23-4.25-5.75-9.6-8.82-16.85-8.65C132.5,84.14,125.87,84,119.25,84Zm-68,14.22c12.45-.38,22.45-2.77,28.94-12.91a15.36,15.36,0,0,1,7.4-5.53,8.37,8.37,0,0,0,4.05-3.66,44,44,0,0,0,5.51-33.49C92,19.94,69.93,2,42.6,7.9,19.89,12.78,2.22,35,7.76,62.42,11.9,83,31.69,98.43,51.23,98.24Zm101.7,112.07a12.23,12.23,0,0,0-1.77-1.38c-9.15-4.08-15.07-10.9-17.28-20.72-.5-2.17-1.76-2.29-3.52-2.29-14.36,0-28.73.09-43.1,0-2.51,0-3.39.87-4,3.2a26.85,26.85,0,0,1-12,17c-2,1.28-4.08,2.48-7,4.25ZM77.07,182.46a21.3,21.3,0,0,0-21.2-21.19c-11.26,0-20.62,9.61-20.67,21.26a20.88,20.88,0,0,0,20.92,21.29A21.15,21.15,0,0,0,77.07,182.46Zm84.52-21.19a21.28,21.28,0,0,0-.36,42.55,20.87,20.87,0,0,0,21-21.24C182.18,170.92,172.84,161.27,161.59,161.27Zm42.32-9.35h0c0,3.37.1,6.75,0,10.12-.1,2.43,1.06,2.94,3.19,2.89s3.67,0,3.58-2.88a142.89,142.89,0,0,1,.06-15.35c.28-3.56-1.32-5.15-4.14-6.53-2.1-1-2.7-.46-2.68,1.64C203.93,145.18,203.91,148.55,203.91,151.92ZM13.43,154.45c.42-2.53-.23-3.85-3.26-3.86s-3.49,1.22-3.46,3.81.27,4.17,3.57,4.1S13.76,156.88,13.43,154.45Z"/><path class="cls-1" d="M147.65,38.56a17.47,17.47,0,0,1-11.32,16.49c-7.44,2.83-14.34,1.13-19.68-4.83-4.59-5.14-5.6-14.3-2.18-20.77a18.05,18.05,0,0,1,3-4.29,28.8,28.8,0,0,0,8.45-20.59c0-2.73,1.07-4.34,3.88-4.38s3.72,1.78,3.72,4.44a26.34,26.34,0,0,0,8,19.13C145.4,27.69,147.93,32.35,147.65,38.56ZM127.94,48.79c6,.06,9.15-2,11-5.68a10.76,10.76,0,0,0-1.37-12.25c-2.26-2.81-4.78-5.4-6.52-8.59-.91-1.67-1.86-1.5-2.69-.06-1.89,3.26-4.59,5.87-6.84,8.83a11.2,11.2,0,0,0-1,12.34A9.23,9.23,0,0,0,127.94,48.79Z"/><path class="cls-1" d="M189.54,58.71c0,8.42-4.47,15.1-11.85,17.65a17.67,17.67,0,0,1-19.23-5.56,18.88,18.88,0,0,1-1.08-22,29.62,29.62,0,0,1,3.29-4,26.93,26.93,0,0,0,8-18.77c.05-2.19.08-4.68,2.93-4.76s3.81,2,3.88,4.8a26.72,26.72,0,0,0,8,18.73C187.28,48.63,189.85,53.05,189.54,58.71ZM171.73,41.39a129.65,129.65,0,0,1-8.91,12.32c-2.62,3.24-2.1,8.15.38,11.57s7.51,5.31,11.26,4.26a11,11,0,0,0,7.67-9.26,11.76,11.76,0,0,0-2.53-8.76Z"/><path class="cls-1" d="M77.07,182.46a21.15,21.15,0,0,1-20.95,21.36A20.88,20.88,0,0,1,35.2,182.53c0-11.65,9.41-21.28,20.67-21.26A21.3,21.3,0,0,1,77.07,182.46Zm-35,0a13.87,13.87,0,0,0,13.62,14c7.41.07,14-6.29,14.11-13.6.11-7.47-6.25-14.14-13.5-14.17A14,14,0,0,0,42,182.5Z"/><path class="cls-1" d="M161.59,161.27c11.25,0,20.59,9.65,20.61,21.31a20.87,20.87,0,0,1-21,21.24,21.28,21.28,0,0,1,.36-42.55Zm13.8,21.25a14,14,0,0,0-14.21-13.82c-7.26,0-13.62,6.68-13.53,14.15.1,7.31,6.68,13.68,14.1,13.62A13.9,13.9,0,0,0,175.39,182.52Z"/><path class="cls-1" d="M119.32,133.52H72.51c-2,0-4.13.24-5.3-1.89s.05-3.83,1.21-5.49l20.17-28.8c3.1-4.43,7.67-5.86,12.7-5.91,12-.13,24,0,36-.05a15.39,15.39,0,0,1,13.32,7c6.48,9.16,13.11,18.2,19.71,27.27,1.31,1.79,2.35,3.61,1.37,5.86-1.11,2.52-3.44,2-5.52,2Zm-3.9-21.31c0-3.5-.09-7,0-10.49.08-2.35-.68-3.45-3.2-3.37-4,.14-8,0-12,.06a6.79,6.79,0,0,0-5.81,2.85c-5.26,7.28-10.54,14.56-15.77,21.86-.48.67-1.43,1.31-1,2.25S79.2,126,80,126c10.74,0,21.48,0,32.22,0,2.51,0,3.3-1,3.22-3.33C115.33,119.2,115.42,115.7,115.42,112.21ZM142,126c5.5,0,11,0,16.49,0,2.37,0,3-.52,1.42-2.69-5.4-7.33-10.69-14.76-16-22.12a6.5,6.5,0,0,0-5.46-2.79c-4.24,0-8.49,0-12.74,0-2.11,0-2.87.86-2.85,2.91.06,7.25.08,14.49,0,21.74,0,2.31.86,3,3.1,3C131.3,125.92,136.67,126,142,126Z"/><path class="cls-1" d="M115.81,140.38h2.62c4.29,0,5.6,1.78,4.46,5.94-.36,1.3-1.21,1.4-2.27,1.39-3.24,0-6.49-.07-9.74,0-3,.07-2.12-2.18-2.14-3.7s-.83-3.8,2.2-3.66C112.56,140.44,114.18,140.37,115.81,140.38Z"/><path class="cls-1" d="M164.83,147.7H162.6c-3.93,0-5.59-2.42-4.24-6.1.44-1.21,1.35-1.26,2.39-1.24,2.1,0,4.21,0,6.32,0,4.55,0,5.23.89,4.47,5.49a1.9,1.9,0,0,1-2.25,1.84C167.81,147.68,166.32,147.7,164.83,147.7Z"/><path class="cls-1" d="M52.56,21.06h15c4.85,0,5.64,1,5.94,6,.51,8.45-1.46,16.6-2.8,24.82-1.8,11-4.56,21.95-3.94,33.3.29,5.2-1.09,6.36-6.29,6.38-5.61,0-11.23,0-16.84,0-4,0-5.62-1.43-5.4-5.39.82-14.52-3.13-28.41-5.39-42.51a90.69,90.69,0,0,1-1.28-17.86c.12-3.14,1.6-4.78,4.93-4.73C41.83,21.12,47.2,21.06,52.56,21.06Zm-.23,21H44.47c-4.57,0-4.67,0-3.87,4.65q1.45,8.48,3.17,16.9c1.26,6.2,1.31,6.18,7.73,6.18,2.12,0,4.25,0,6.37,0,1.27,0,2.06-.27,2.33-1.73,1.41-7.72,2.89-15.43,4.38-23.13.4-2.1-.27-3-2.5-2.92C58.83,42.18,55.58,42.09,52.33,42.09ZM52.47,28c-3.62,0-7.24.13-10.85-.05-2.59-.12-3.57.79-3.5,3.42.06,2.39.19,4,3.34,4q11-.25,22.06,0c3.18.07,3.24-1.65,3.32-4,.08-2.66-1-3.51-3.53-3.39C59.7,28.07,56.08,28,52.47,28ZM52.3,84a23.38,23.38,0,0,1,3.35,0c3,.45,3.54-1,3.47-3.64-.06-2.41-.86-3.42-3.29-3.27a47.57,47.57,0,0,1-6,0c-2.71-.19-4,.5-4.06,3.66s1.46,3.48,3.88,3.24A22.9,22.9,0,0,1,52.3,84Z"/><path class="cls-1" d="M62.93,182.46a6.88,6.88,0,0,1-6.64,7.12c-3.72.08-7.38-3.3-7.5-6.91s3.56-7.1,7.3-7.19A7,7,0,0,1,62.93,182.46Z"/><path class="cls-1" d="M168.61,182.35c.1,3.56-3.48,7.17-7.17,7.23a6.85,6.85,0,0,1-7-6.8,7.08,7.08,0,0,1,6.52-7.3C164.69,175.38,168.51,178.83,168.61,182.35Z"/></svg>