<svg id="Camada_1" data-name="Camada 1" xmlns="http://www.w3.org/2000/svg" viewBox="0 0 216.88 216.84"><defs><style>.cls-1{fill:#0086f6;}</style></defs><path class="cls-1" d="M71.4,69.66h32.15c1.78,0,3.2.09,2.52-2.59-6.83-27,10.52-53.2,33.39-62.71a55.82,55.82,0,1,1,39.07,104.48c-2.82.93-4.17,2.16-3.68,5.2a26.78,26.78,0,0,1,0,4.48c-.06,6.74-3.93,10.64-10.6,10.88-1.25,0-3.22-1-3.54,1.45-.25,2,.55,3.07,2.42,4,7.76,4,11.68,10.54,11.72,19.32,0,5.85.07,11.71,0,17.56-.05,2.24.31,3.53,3,3.28s3.79,1.48,3.81,4c0,4.36,0,8.72,0,13.08,0,2.73-1.4,3.88-4.25,3.92-9.19.11-9.19.19-9.26,9.18-.06,7.41-4.21,11.58-11.55,11.58-4.23,0-8.47,0-12.71,0-6.74,0-10.72-3.93-10.85-10.58a43.58,43.58,0,0,1,0-5.6c.39-3.54-.88-4.75-4.56-4.72-18,.17-35.9.08-53.84.08H53.74c-5.18,0-5.18,0-5.18,5,0,2.11.09,4.24,0,6.35a9.87,9.87,0,0,1-9.74,9.44c-5,.11-10,.09-15,0A10.41,10.41,0,0,1,13.45,207a80.28,80.28,0,0,1-.06-8.21c0-2.08-.81-2.95-2.89-2.87-2.24.09-4.48,0-6.73,0-2.48,0-3.71-1.22-3.73-3.63,0-4.61,0-9.22,0-13.83,0-2.27,1.19-3.6,3.45-3.45,2.65.17,3.1-1.16,3.06-3.41-.11-5.23,0-10.46,0-15.69-.16-9.36,4-16.25,11.89-21,1.72-1,2.79-2.05,2.4-4.07-.49-2.52-2.56-1.44-3.95-1.5-4.84-.22-8.58-3-9.77-7.7a26.94,26.94,0,0,1-.22-11.13c.94-5.57,4.7-8.79,10.36-8.72,2.76,0,3.87-.8,3.68-3.61s-.1-5.48,0-8.22a20.73,20.73,0,0,1,21-20.36Zm19.39,49.17c14.08,0,28.16,0,42.25,0,7.55,0,6.83,1.17,6.86-7.06,0-2,.27-3.86-2.27-4.91A51.17,51.17,0,0,1,118.82,93a4.39,4.39,0,0,0-3.5-1.74q-34.59.06-69.17,0c-3.08,0-4.44,1.45-4.36,4.66.16,6.35.19,12.71,0,19.06-.1,2.93.74,3.88,3.77,3.85C60.62,118.75,75.71,118.83,90.79,118.83ZM90.68,140q-31.59,0-63.17,0c-8.11,0-13.89,5.7-14,13.79-.07,6,.06,12,0,17.94,0,2.36.67,3.32,3.19,3.29,9.47-.12,18.94-.14,28.41,0,2.91,0,3.6-1.12,3.54-3.77-.13-6.35.13-12.71-.11-19-.13-3.65,1.42-4.93,4.8-4.93q37.58,0,75.14,0c3.26,0,4.71,1.47,4.65,4.81-.12,6.6,0,13.2-.07,19.8,0,2.12.37,3.15,2.84,3.12q14.76-.18,29.52,0c2.47,0,2.88-1,2.84-3.12-.11-5.6,0-11.21,0-16.82,0-9.51-5.59-15.08-15.06-15.08Zm70.16-35.39c27.36,0,49.08-21.4,49.21-48.51C210.18,29.43,187.91,7,161.23,6.83a48.61,48.61,0,0,0-49,48.71C112.19,83.68,132.92,104.61,160.84,104.63ZM90.62,133.18H116.8q16.83,0,33.65,0c1.51,0,3.53.56,3.55-2,0-6,.21-12-.09-17.93-.15-3.1-3.41-2.45-5.29-2.77-2.11-.37-1.32,1.87-1.38,3-.14,2.36,0,4.73-.05,7.1,0,4.07-1,5.22-5,5.23q-51.22.06-102.46,0c-3.5,0-4.84-1.53-4.77-5,.16-8.47,0-16.94.06-25.42,0-7.44,4.16-11.54,11.6-11.54q24.12,0,48.24,0c4.73,0,9.47,0,14.21,0,.91,0,2.11.34,2.2-1.24.16-2.5-2.59-5.61-5.14-5.61-21.44,0-42.88-.12-64.32.05-8.51.07-14.08,6.16-14.1,14.66,0,12.46.12,24.92-.08,37.38-.05,3.36,1,4.21,4.27,4.19C51.48,133.11,71.05,133.18,90.62,133.18Zm.13,20.95c-10.33,0-20.66,0-31,0-2.19,0-3.88,0-3.86,3,0,2.68.78,3.76,3.62,3.75q31.35-.12,62.7,0c2.67,0,3.36-1,3.41-3.52,0-2.73-1-3.33-3.54-3.3C111.65,154.19,101.2,154.13,90.75,154.13ZM90.86,175c10.45,0,20.9-.08,31.35.05,2.65,0,3.42-.85,3.43-3.42s-1-3.41-3.53-3.4q-31.15.11-62.32,0c-2.55,0-3.87.53-3.9,3.49,0,3.13,1.58,3.33,4,3.31C70.21,175,80.53,175,90.86,175ZM34.71,189.1c8.34,0,16.67-.12,25,.07,3.08.06,3-1.54,3-3.73s.11-3.73-3-3.71q-24.81.22-49.62,0c-2.93,0-3.53,1.07-3.53,3.71s.53,3.79,3.5,3.72C18.29,189,26.5,189.1,34.71,189.1Zm112.53-7.3c-8.34,0-16.68.13-25-.06-3-.07-3.5,1.22-3.45,3.78,0,2.31.24,3.67,3.18,3.64q25-.18,50,0c3.15,0,2.91-1.68,3-3.79s-.05-3.71-3.07-3.64C163.66,181.93,155.44,181.8,147.24,181.8ZM90.8,189.11c6.1,0,12.2-.12,18.29,0,2.92.07,3.16-1.47,3.18-3.74s-.34-3.7-3.21-3.67c-12.19.12-24.39.15-36.58,0-3.1-.05-3,1.55-3,3.71s0,3.82,3,3.71C78.6,189,84.7,189.1,90.8,189.11ZM150.41,196h-1.12c-9.78,0-9.72,0-9.42,9.7.09,2.93,1.43,4.41,4.26,4.46,4.34.08,8.69,0,13,0,2.17,0,3.1-1.25,3.49-3.14,1.9-9.19.41-11.06-8.75-11.06ZM31.63,196H23.42c-1.18,0-2.43.16-2.47,1.62a72.52,72.52,0,0,0,.12,9.67c.19,1.88,1.91,2.84,3.84,2.86,4.23,0,8.45.08,12.68,0,2.63-.06,4-1.55,4.24-4.22.9-9.93.92-9.93-9.09-9.93ZM20.87,115.64c0-1,.06-2,0-3-.15-1.8.83-4.24-2.56-4.2-3,0-4.74,1.24-4.79,4.36a47.83,47.83,0,0,0,.08,6.34c.34,2.73,2.25,3.55,4.84,3.49s2.42-1.91,2.44-3.65C20.88,117.88,20.87,116.76,20.87,115.64Zm139.72,1.73c1,1.61-1.53,4.47,1.76,5.19,1.76.38,4,.39,5-1.53a10.47,10.47,0,0,0,.35-8.63c-.76-2-3.11-.39-4.72-.27C159.1,112.41,161.42,115.53,160.59,117.37Z"/><path class="cls-1" d="M80.3,6.83A3.73,3.73,0,0,1,83.86,9.6a18.52,18.52,0,0,0,11.2,11.22,3.72,3.72,0,0,1,2.81,3.53c0,1.9-1.07,2.93-2.72,3.57C89.64,30,85.7,33.73,83.79,39.42A3.44,3.44,0,0,1,80.49,42,3.29,3.29,0,0,1,77,39.68a19.35,19.35,0,0,0-12-12,3.3,3.3,0,0,1-2.31-3.47,3.41,3.41,0,0,1,2.49-3.32A18.14,18.14,0,0,0,76.75,9.59C77.39,8,78.38,6.8,80.3,6.83Zm.12,22.46c1.12-.09,5.39-4.52,5.25-5.45s-4.83-5.13-5.34-4.76c-2.09,1.54-4.15,3.2-5.31,5.58C74.64,25.44,79.38,29.37,80.42,29.29Z"/><path class="cls-1" d="M17.42,66.66a3.57,3.57,0,0,1-3.33-2.5c-2.21-5.61-5.9-9.69-11.75-11.65A3.22,3.22,0,0,1,0,49.08a3.5,3.5,0,0,1,2.37-3.45c5.79-2,9.41-6.12,11.79-11.68,1.38-3.23,5.1-3.33,6.56-.08,2.57,5.74,6.33,9.87,12.28,12.25,3,1.2,2.92,4.75-.17,5.94a20,20,0,0,0-11.92,12A4.38,4.38,0,0,1,17.42,66.66Zm0-12.18c.84,0,5.87-5.37,5.45-5.8a49.91,49.91,0,0,0-5.66-5c-.52-.4-5.25,4.6-5.14,5.33S16.8,54.52,17.42,54.48Z"/><path class="cls-1" d="M150.14,147.34a10.35,10.35,0,0,1,10.58,10.27,10.93,10.93,0,0,1-10.36,10.66,10.53,10.53,0,0,1-10.45-10.44A10.06,10.06,0,0,1,150.14,147.34Zm.28,6.78c-2.16.21-3,1.59-3.14,3.47a2.79,2.79,0,0,0,3.17,3.18c1.88,0,3.49-1,3.44-3S152.41,154.51,150.42,154.12Z"/><path class="cls-1" d="M31.39,168.25A10.6,10.6,0,0,1,20.9,157.39a10.13,10.13,0,0,1,10.36-10A10.34,10.34,0,0,1,41.8,157.64C41.7,163.42,36.94,168.27,31.39,168.25Zm.23-7.38c1.7-.32,3.38-1,3.3-3.16a3.36,3.36,0,0,0-3.59-3.49c-2.41,0-3.63,1.57-3.57,3.86S29.68,160.66,31.62,160.87Z"/><path class="cls-1" d="M203.35,56.2a42.32,42.32,0,1,1-42.1-42.67C184.88,13.61,203.42,32.4,203.35,56.2ZM161.09,21c-18.08-.42-35.63,14.78-35.53,35,.08,18.71,16.89,35.67,35.61,35.2a35.12,35.12,0,0,0,34.67-35.49A34.32,34.32,0,0,0,161.09,21Z"/><path class="cls-1" d="M176.45,47.69c0,1.3-.92,1.89-1.6,2.58-5.79,5.82-11.65,11.58-17.4,17.44-2.26,2.3-4.39,2.57-6.75.24-1.06-1-2.22-2-3.31-3-3-2.81-2.61-5,1-7,1.57-.89,2.46.17,3.15,1,1.92,2.37,3.33,1.62,5.1-.23,4.49-4.66,9.1-9.19,13.71-13.74.82-.82,1.72-2.3,3.08-1.24A7.53,7.53,0,0,1,176.45,47.69Z"/></svg>