<svg id="Camada_1" data-name="Camada 1" xmlns="http://www.w3.org/2000/svg" viewBox="0 0 753.96 326.18"><defs><style>.cls-1{fill:#0086f6;}</style></defs><path class="cls-1" d="M338.71,117.33c0,14.15,0,27.07,0,40,0,7-.89,13.78-7.91,17-8.24,3.79-17,3.78-25-.77-4.8-2.73-6.52-7.91-6.53-13.33-.06-33.47-.14-66.94.06-100.41.05-9.21,5-14.14,14.08-16,12.23-2.49,20.36,3,27.69,12.31,12.19,15.57,25.27,30.44,38,45.65,1.62-.94.81-2.43.82-3.57.07-12.32,0-24.64.06-37,0-10.64,4.61-16,15.05-17.65a28,28,0,0,1,13.79,1.15c6.41,2.23,10,6.65,10,13.38q.17,51.95,0,103.9c0,7.09-4.1,11.92-10.93,13.63-10.7,2.67-19.85.81-27.28-8.29C367.22,150.86,353.33,134.71,338.71,117.33Z"/><path class="cls-1" d="M91.21,105.33C83,111.14,75.7,116.21,68.54,121.52c-2.37,1.75-4,1.9-6.5,0C54.87,116.2,47.46,111.16,40.17,106c-1.81.93-1,2.45-1,3.59-.07,16.32,0,32.64-.06,49,0,11.6-4.2,16.36-15.58,18a27.89,27.89,0,0,1-14.72-1.72c-6-2.47-8.77-7.6-8.79-13.91Q-.06,110,.09,59c0-8.11,4.71-13.4,12.67-15,10.06-2.07,18.77.15,25.57,8.33C46.52,62.17,54.86,71.89,63,81.81c1.92,2.35,2.84,2.18,4.67-.07C75.72,71.81,84,62,92.2,52.2a24.9,24.9,0,0,1,28-7.45c7.18,2.57,10.44,7.68,10.46,16.88q.07,39.21,0,78.43c0,6.16,0,12.32,0,18.48-.1,11.25-4.64,16.47-15.78,18a30.66,30.66,0,0,1-7.95,0c-11.15-1.5-15.68-6.71-15.71-18,0-15.49,0-31,0-46.46C91.2,110.22,91.21,108.4,91.21,105.33Z"/><path class="cls-1" d="M588,276.74c0,10.49,0,21,0,31.48s-4.46,15.58-14.8,17.3a29.24,29.24,0,0,1-13.34-.9c-7.28-2.19-10.82-7.55-10.83-16.55q-.07-38.49,0-77c0-7.17-.06-14.33,0-21.49.12-10.27,4.51-15.59,14.58-16.77,11.6-1.36,23.29-.33,34.94-.52,5.83-.1,11.66-.06,17.48.16,20.36.75,38.7,24.1,34.44,47.71-2,11.11-6.69,20.51-16.44,26.8-2.23,1.43-2.86,2.41-.87,4.87,5.75,7.11,11.2,14.47,16.65,21.81,4.23,5.71,7.45,12,3.31,18.88-4.71,7.79-11.92,12.67-21.2,13-4.74.19-8.29-3.18-11.08-6.88Q606.37,299.58,592,280.4c-1.06-1.4-2.1-2.81-3.15-4.21Zm0-42.66c0,4.16.09,8.32,0,12.49-.06,2,.38,3.16,2.67,3.1,5-.13,10,.39,14.93-.81,6.8-1.65,10.27-6.33,10.41-13.9.15-8-3.08-12.87-9.8-14.91-4.91-1.49-9.93-.62-14.9-1-2.72-.18-3.44,1-3.32,3.5C588.11,226.41,588,230.24,588,234.08Z"/><path class="cls-1" d="M482.64,43.26c7.1.48,15.78-.87,24.37.81,17.77,3.47,30.34,13.52,38,29.88,12.84,27.44,11.52,54.23-4.37,79.91-9.58,15.47-24.35,22.63-42.4,22.92-11.65.19-23.31.09-35,0-14.7-.09-20.28-5.68-20.28-20.2q0-46.93,0-93.88c0-13.13,5.94-19.19,19.14-19.44C468.46,43.16,474.79,43.26,482.64,43.26Zm-.44,66.62c0,11.83.11,23.66-.07,35.49-.05,3.07.91,3.92,3.88,4.14,12.55,1,25.07-7.92,28.63-20.38a75.83,75.83,0,0,0,2-30.7C514.19,79.11,504.12,70,486.33,70.18c-3.29,0-4.26.89-4.2,4.22C482.33,86.22,482.2,98.06,482.2,109.88Z"/><path class="cls-1" d="M118.76,305A26.55,26.55,0,0,1,121,294.81q20.52-44.83,41-89.68c3.5-7.61,9.11-12.71,18-12.79s14.73,4.38,18.33,12.18q19,41.16,37.89,82.34a120.87,120.87,0,0,1,4.92,11.42c4.43,13-3.24,25.54-16.55,27.39-9.45,1.32-16.53-3.43-20.5-13.71-3.82-9.9-3.82-9.9-14.3-9.9-8.49,0-17,.14-25.47-.08-3-.08-4.55.95-5.36,3.78-.68,2.38-1.73,4.66-2.65,7-4.24,10.68-11.2,14.66-21.8,12.5A20,20,0,0,1,118.76,305Zm61.76-57.48c-2.7,7.31-4.93,13.68-7.41,20-1.09,2.77-.3,3.46,2.46,3.32,3.46-.17,6.94-.07,10.42,0,1.94,0,3.19,0,2.13-2.69C185.56,261.61,183.3,255.07,180.52,247.48Z"/><path class="cls-1" d="M276.89,155.83c-.12,10.78-7,18.83-16.67,20.5-10.18,1.77-17.43-2.44-21.11-12.26-4.08-10.89-4.08-10.89-15.86-10.89-8.16,0-16.32.14-24.48-.08-3-.08-4.56.89-5.42,3.75a64.1,64.1,0,0,1-3.5,9.32c-3.18,6.7-8.28,10.79-16,10.62-8.06-.18-14.29-3.27-18.26-10.8s-2.58-14.8.71-22c6.48-14.2,13.06-28.36,19.56-42.56Q186,79.22,196.1,57c3.73-8.23,9.56-13.79,19-13.65s15,6,18.69,14.2q19.86,43.5,39.95,86.91A31.16,31.16,0,0,1,276.89,155.83ZM215,98.59c-1.65,4.31-2.84,7.48-4.07,10.64-5.09,13-5.09,13,8.78,12.45,2.53-.09,3.65-.26,2.43-3.28C219.69,112.3,217.66,106,215,98.59Z"/><path class="cls-1" d="M388.76,305.2c-.35-8.24,4.27-14.53,7.26-21.27,11.55-25.92,23.49-51.67,35.23-77.51,5.1-11.24,13.19-15.78,24.21-13.38a16.38,16.38,0,0,1,11.64,9.35c7.39,15.42,14.61,30.92,21.78,46.45S503,280.35,510.43,296c6.07,12.81-2.46,28.39-15.36,29.73-8.08.84-14.34-1.78-18.51-8.88-.75-1.29-1.78-2.61-2-4-1.25-10.08-7.48-11.78-16.35-10.9-7.59.75-15.31.32-23,.08-3.46-.1-5.52.66-6.49,4.33a56.71,56.71,0,0,1-3.78,9.2c-5.39,11.54-20.92,14.27-29.73,5C391.23,316.28,388.12,311.28,388.76,305.2Zm61.73-57.69c-2.76,7.47-5.2,14.06-7.64,20.65-.54,1.45-.59,2.59,1.51,2.57,4.14,0,8.27,0,12.41,0,2,0,2-.79,1.39-2.48C455.62,261.65,453.24,255,450.49,247.51Z"/><path class="cls-1" d="M312.75,257.52c5.64-12.47,10.94-24.24,16.29-36,2.82-6.19,5.44-12.5,8.68-18.47,5.6-10.3,16-13.9,26.82-9.74,6.69,2.58,11.74,13.74,9.63,22.14-2.57,10.22-8,19.3-12.28,28.81-10,22.1-20.15,44.09-30.27,66.12-.83,1.81-1.76,3.58-2.72,5.32-7.35,13.35-23.09,14.06-31.69,1.42-4-5.8-6.29-12.44-9.22-18.75-11.61-25-23-50.12-34.51-75.15a27.93,27.93,0,0,1-2.81-12.54c.24-9.4,5.38-16.48,13.2-18.23,10.21-2.28,19,1.25,23.18,10C295.65,220.47,303.93,238.58,312.75,257.52Z"/><path class="cls-1" d="M576,109.63q0-23.75,0-47.47c0-12.07,5.34-18.39,17.21-18.72,17.14-.48,34.31-.39,51.46,0,9.24.19,13.79,6.09,13.64,16.15-.15,9.72-4.7,14.93-14,15.27-8.32.31-16.66.19-25,0-3-.06-4.2.77-4,3.91a86.38,86.38,0,0,1,0,11.49c-.23,3.28,1.23,3.88,4.09,3.82,6.66-.16,13.33-.14,20,0,9.9.18,14.77,5.25,15,15.38.18,10.33-4.7,15.93-14.64,16.31-6.82.26-13.67.2-20.49,0-3.12-.09-4.06,1-3.89,4a100.1,100.1,0,0,1,0,11.49c-.18,3,.84,4.06,3.93,4,7.66-.19,15.32-.1,23-.05,13.44.09,20.73,12.61,14.41,24.59-2.78,5.28-7.55,6.92-12.9,7-16.49.15-33,.3-49.48,0-13-.26-18.26-6.11-18.27-19.11Q576,133.62,576,109.63Z"/><path class="cls-1" d="M0,258.65q0-24,0-48c0-11.59,4.51-16.61,16-18.17a32.54,32.54,0,0,1,12.86,1c6.63,1.79,10.22,7.51,10.24,15.92.06,24.64,0,49.28,0,73.92,0,2.5.15,5,0,7.49-.21,2.7.93,3.42,3.46,3.38,7.33-.12,14.69.4,22-.13,16.53-1.21,18.73,8.24,17.1,21.24-.88,7-5.29,10.44-12.4,10.47-16.82.09-33.64.17-50.45,0C5.93,325.66,0,319.43,0,306.6Q0,282.63,0,258.65Z"/><path class="cls-1" d="M721.6,234.19c0,8.16.09,16.32,0,24.48-.16,10.94-6,16.87-17,17.41a49.39,49.39,0,0,1-7-.12c-9.37-.88-15.21-6.48-15.38-15.84q-.46-26,0-52c.15-8.92,5-13.75,14-15.47a33.16,33.16,0,0,1,14.84.69c6.5,1.7,10.4,7.65,10.53,15.82C721.69,217.53,721.6,225.86,721.6,234.19Z"/><path class="cls-1" d="M721.7,133.56c0,8,0,16,0,24-.05,11.24-4.61,16.49-15.77,17.82-6.53.77-13,.66-18.43-4-4.22-3.57-5.24-8.4-5.27-13.5-.08-16.16-.15-32.32,0-48.48.12-10.94,5.36-16.3,16.35-17.56a28,28,0,0,1,13.27,1.38c7,2.63,9.72,8.24,9.82,15.31C721.78,116.9,721.7,125.23,721.7,133.56Z"/><path class="cls-1" d="M701.69,85a21.4,21.4,0,0,1-21.77-21.34C679.78,51.37,689.3,41.9,701.74,42c12.06,0,21.85,9.73,21.73,21.49A22,22,0,0,1,701.69,85Zm-4.42-3.33c12.82,1.66,21.91-4.72,23.45-15.61,1-7.22-2.64-14.79-7.48-15.49C721.23,63,713.77,78.5,697.27,81.67Z"/><path class="cls-1" d="M702,325.84c-11.31,0-19.74-8.78-19.82-20.63-.09-12,8.52-21.09,20-21,11.17.05,19.53,9,19.49,20.89S713.13,325.86,702,325.84Z"/><path class="cls-1" d="M749.88,43.07c-4.1,6-12.48,8.13-19.35,4.84a16.42,16.42,0,0,1-8.33-19,16.06,16.06,0,0,1,17.54-11.57c6.51.95,11,4.6,13.12,10.75,1.85,5.42,1.71,10.76-3,15-1.27-2.07.76-3.32,1.31-4.88,3.11-8.78-2.87-18.24-11.58-18,9.58,6.38,9.58,17.87-.13,26.59,2.05.67,3.51-.73,5.19-1.1C746.61,45.24,747.26,42.16,749.88,43.07Z"/><path class="cls-1" d="M707.32,5.65c4.81,6.21,4.09,13.82-1.74,18.55a13.73,13.73,0,0,1-18.89-1.61c-5.17-6.1-4.53-13.32,1.68-18.87.18.13.35.27.52.41.48,1.27,1.58,1,2.5.89,10.19-1,13.16.75,17,10,1.37-3.38-.91-5.91-1.75-8.73Z"/><path class="cls-1" d="M688.37,3.72c5.27-4.59,9.73-4.9,15.88-1.11l-.72.86c-5-2.65-9.85-1.47-14.64.66C688.72,4,688.55,3.85,688.37,3.72Z"/><path class="cls-1" d="M704.25,2.61l2.15,2a5.91,5.91,0,0,0-.68.64l-2.19-1.75Z"/><path class="cls-1" d="M706.4,4.58c.3.36.61.72.92,1.07l-.7.64-.9-1.07A5.91,5.91,0,0,1,706.4,4.58Z"/></svg>